<svg style="width:50px;height:50px;border-radius:100px;" id="Laag_1" data-name="Laag 1" xmlns="http://www.w3.org/2000/svg" viewBox="0 0 1417.32 1417.34"><defs><style>.cls-1{fill:#fff;fill-rule:evenodd;}</style></defs><title>Logo</title><rect width="1417.32" height="1417.34"></rect><path class="cls-1" d="M955,439.08H462.34a107,107,0,0,0-107,107v324a107,107,0,0,0,107,107H955a107,107,0,0,0,107-107v-324A107,107,0,0,0,955,439.08ZM617.44,648.17s-111.07,58.2-119.89,271.52c0,0-93.44-137.51,47.61-343.81l-56.42-67,220.39-12.35S677.4,674.62,677.4,715.19ZM929.05,907.36l-220.4,12.33s31.72-178,31.72-218.61l60,67S911.4,709.89,920.22,496.54c0,0,93.45,137.55-47.6,343.85Z" transform="translate(0 0.01)"></path></svg>
